<?xml version="1.0" encoding="UTF-8" standalone="no"?><svg xmlns:dc="http://purl.org/dc/elements/1.1/" xmlns:cc="http://creativecommons.org/ns#" xmlns:rdf="http://www.w3.org/1999/02/22-rdf-syntax-ns#" xmlns:svg="http://www.w3.org/2000/svg" xmlns="http://www.w3.org/2000/svg" xmlns:sodipodi="http://sodipodi.sourceforge.net/DTD/sodipodi-0.dtd" xmlns:inkscape="http://www.inkscape.org/namespaces/inkscape" version="1.0" width="500" height="150.677" id="svg1936" inkscape:version="0.91 r13725" sodipodi:docname="amazon.svg"><metadata id="metadata16"><rdf:RDF><cc:Work rdf:about=""><dc:format>image/svg+xml</dc:format><dc:type rdf:resource="http://purl.org/dc/dcmitype/StillImage" /><dc:title></dc:title></cc:Work></rdf:RDF></metadata><defs id="defs14" /><sodipodi:namedview pagecolor="#ffffff" bordercolor="#666666" borderopacity="1" objecttolerance="10" gridtolerance="10" guidetolerance="10" inkscape:pageopacity="0" inkscape:pageshadow="2" inkscape:window-width="1920" inkscape:window-height="1017" id="namedview3353" showgrid="false" fit-margin-top="0" fit-margin-left="0" fit-margin-right="0" fit-margin-bottom="0" inkscape:zoom="1.241148" inkscape:cx="204.01324" inkscape:cy="90.74961" inkscape:window-x="-8" inkscape:window-y="-8" inkscape:window-maximized="1" inkscape:current-layer="g1967" /><g transform="translate(144.53434,-680.69941)" id="layer1"><g transform="translate(7.081691,7.081144)" id="g1967"><g id="g3344" transform="translate(-51.139806,15.411107)"><path inkscape:connector-curvature="0" style="fill:#ff9900;fill-opacity:1;fill-rule:evenodd;stroke:none" id="path8" d="m 209.71401,776.04122 c -29.05587,21.41648 -71.17057,32.84294 -107.43054,32.84294 -50.842333,0 -96.6134791,-18.80469 -131.24112,-50.08057 -2.720583,-2.45942 -0.28295,-5.81117 2.981765,-3.89589 37.369974,21.74294 83.576442,34.82353 131.306425,34.82353 32.18996,0 67.60113,-6.66001 100.16111,-20.48059 4.91883,-2.08942 9.03235,3.22117 4.22236,6.79058" /><path inkscape:connector-curvature="0" style="fill:#ff9900;fill-opacity:1;fill-rule:evenodd;stroke:none" id="path10" d="m 221.79342,762.22065 c -3.70001,-4.74471 -24.55058,-2.24176 -33.9094,-1.13176 -2.85119,0.34823 -3.28647,-2.13294 -0.71825,-3.91766 16.60647,-11.68764 43.85588,-8.31411 47.03353,-4.39647 3.17763,3.93942 -0.82706,31.25412 -16.43236,44.29116 -2.39411,2.00235 -4.67941,0.93589 -3.61292,-1.71941 3.5041,-8.74941 11.36117,-28.35939 7.6394,-33.12586" /><path inkscape:connector-curvature="0" style="fill:#221f1f;fill-rule:evenodd;stroke:none" id="path12" d="m 188.53697,674.66127 0,-11.36117 c 0,-1.71941 1.30588,-2.87294 2.87293,-2.87294 l 50.86409,0 c 1.63236,0 2.93824,1.17529 2.93824,2.87294 l 0,9.72882 c -0.0217,1.63235 -1.39294,3.76529 -3.8306,7.13881 l -26.35704,37.63117 c 9.79413,-0.2394 20.13236,1.21882 29.01235,6.2247 2.00235,1.13176 2.54647,2.78588 2.69882,4.41825 l 0,12.12293 c 0,1.65412 -1.82824,3.59116 -3.74353,2.59 -15.64882,-8.2053 -36.4341,-9.09765 -53.73703,0.0871 -1.76294,0.95764 -3.61294,-0.95765 -3.61294,-2.61177 l 0,-11.51352 c 0,-1.85 0.0217,-5.00589 1.87175,-7.81354 l 30.53588,-43.79056 -26.57469,0 c -1.63235,0 -2.93823,-1.15352 -2.93823,-2.85118" /><path inkscape:connector-curvature="0" style="fill:#221f1f;fill-rule:evenodd;stroke:none" id="path14" d="m 2.9929182,745.54888 -15.4746942,0 c -1.479986,-0.10881 -2.655289,-1.21881 -2.764117,-2.63353 l 0,-79.41935 c 0,-1.58883 1.327649,-2.85119 2.981765,-2.85119 l 14.4299878,0 c 1.5017788,0.0652 2.6988234,1.21882 2.80766,2.65529 l 0,10.38177 0.2829419,0 c 3.7652892,-10.03354 10.8388033,-14.71295 20.3717513,-14.71295 9.685285,0 15.735868,4.67941 20.088808,14.71295 3.74353,-10.03354 12.253522,-14.71295 21.37294,-14.71295 6.48588,0 13.58117,2.67706 17.912343,8.68412 4.897056,6.68176 3.895876,16.38881 3.895876,24.89882 l -0.02176,50.12409 c 0,1.58883 -1.327648,2.87293 -2.981765,2.87293 l -15.452944,0 c -1.54528,-0.10881 -2.785867,-1.3494 -2.785867,-2.87293 l 0,-42.09292 c 0,-3.35176 0.304692,-11.70941 -0.435297,-14.88706 -1.153527,-5.33234 -4.614115,-6.83412 -9.097651,-6.83412 -3.74353,0 -7.661173,2.50295 -9.249997,6.50766 -1.588823,4.0047 -1.436468,10.70821 -1.436468,15.21352 l 0,42.09292 c 0,1.58883 -1.327649,2.87293 -2.981766,2.87293 l -15.452926,0 c -1.567056,-0.10881 -2.785884,-1.3494 -2.785884,-2.87293 l -0.02176,-42.09292 c 0,-8.85823 1.458219,-21.89529 -9.53294,-21.89529 -11.12177,0 -10.6864735,12.71058 -10.6864735,21.89529 l 0,42.09292 c 0,1.58883 -1.3276485,2.87293 -2.9817653,2.87293" /><path inkscape:connector-curvature="0" style="fill:#221f1f;fill-rule:evenodd;stroke:none" id="path16" d="m 289.0028,658.96892 c 22.96176,0 35.38939,19.71882 35.38939,44.79175 0,24.2241 -13.73353,43.44233 -35.38939,43.44233 -22.54823,0 -34.82353,-19.71882 -34.82353,-44.29115 0,-24.7247 12.42765,-43.94293 34.82353,-43.94293 m 0.13058,16.21471 c -11.40469,0 -12.12293,15.53998 -12.12293,25.22528 0,9.70706 -0.15236,30.42704 11.99235,30.42704 11.99235,0 12.55823,-16.71527 12.55823,-26.90117 0,-6.70351 -0.28294,-14.71292 -2.30707,-21.06822 -1.74117,-5.52822 -5.20175,-7.68293 -10.12058,-7.68293" /><path inkscape:connector-curvature="0" style="fill:#221f1f;fill-rule:evenodd;stroke:none" id="path18" d="m 354.1663,745.54888 -15.4094,0 c -1.5453,-0.10881 -2.78589,-1.3494 -2.78589,-2.87293 l -0.0217,-79.44115 c 0.13059,-1.45823 1.41471,-2.58999 2.98176,-2.58999 l 14.34295,0 c 1.3494,0.0652 2.4594,0.97941 2.76411,2.22 l 0,12.14469 0.28293,0 c 4.33119,-10.86058 10.40352,-16.04058 21.08999,-16.04058 6.94293,0 13.71176,2.50295 18.0647,9.35882 4.04824,6.35529 4.04824,17.04177 4.04824,24.72469 l 0,49.99353 c -0.17412,1.39292 -1.45824,2.50292 -2.98175,2.50292 l -15.51824,0 c -1.41472,-0.10881 -2.59001,-1.15352 -2.74235,-2.50292 l 0,-43.13764 c 0,-8.68411 1.00117,-21.3947 -9.6853,-21.3947 -3.76528,0 -7.22588,2.52472 -8.94529,6.35529 -2.17646,4.85354 -2.4594,9.6853 -2.4594,15.03941 l 0,42.76763 c -0.0217,1.58883 -1.37117,2.87293 -3.02529,2.87293" /><path inkscape:connector-curvature="0" style="fill:#221f1f;fill-rule:evenodd;stroke:none" id="path28" d="m 147.98933,707.61302 c 0,6.02882 0.15235,11.05646 -2.89471,16.41058 -2.4594,4.35295 -6.37705,7.03001 -10.70822,7.03001 -5.94176,0 -9.42411,-4.52707 -9.42411,-11.20883 0,-13.1894 11.81822,-15.58352 23.02704,-15.58352 l 0,3.35176 m 15.60529,37.71821 c -1.02293,0.91412 -2.50294,0.97942 -3.65647,0.37002 -5.13647,-4.26588 -6.07235,-6.24647 -8.88,-10.31647 -8.48823,8.66235 -14.51706,11.25234 -25.50823,11.25234 -13.03705,0 -23.15763,-8.03117 -23.15763,-24.11527 0,-12.55824 6.7906,-21.11176 16.49765,-25.29058 8.40117,-3.70001 20.13233,-4.35294 29.09939,-5.37588 l 0,-2.00235 c 0,-3.67825 0.28294,-8.03119 -1.89353,-11.20882 -1.87176,-2.85119 -5.48471,-4.02648 -8.68411,-4.02648 -5.89824,0 -11.14352,3.02529 -12.42765,9.29352 -0.26117,1.39295 -1.28411,2.76413 -2.69882,2.82942 l -14.99587,-1.6106 c -1.26236,-0.28292 -2.67706,-1.30588 -2.30706,-3.24292 3.43882,-18.19528 19.89294,-23.68 34.60586,-23.68 7.53059,0 17.36823,2.00235 23.31,7.7047 7.53058,7.03 6.81235,16.41058 6.81235,26.61823 l 0,24.11528 c 0,7.24766 3.00352,10.42529 5.83293,14.34295 0.97942,1.39292 1.19707,3.06881 -0.0653,4.11351 -3.15588,2.63354 -8.77118,7.5306 -11.86176,10.27295 l -0.0218,-0.0436" /><path inkscape:connector-curvature="0" style="fill:#221f1f;fill-rule:evenodd;stroke:none" id="path30" d="m -54.879394,707.61302 c 0,6.02882 0.152338,11.05646 -2.894705,16.41058 -2.459425,4.35295 -6.355301,7.03001 -10.708242,7.03001 -5.941763,0 -9.402343,-4.52707 -9.402343,-11.20883 0,-13.1894 11.818225,-15.58352 23.00529,-15.58352 l 0,3.35176 m 15.605281,37.71821 c -1.022939,0.91412 -2.502951,0.97942 -3.656477,0.37002 -5.136456,-4.26588 -6.050584,-6.24647 -8.879994,-10.31647 -8.488234,8.66235 -14.495274,11.25234 -25.508224,11.25234 -13.015295,0 -23.157632,-8.03117 -23.157632,-24.11527 0,-12.55824 6.812353,-21.11176 16.497638,-25.29058 8.401171,-3.70001 20.132344,-4.35294 29.099408,-5.37588 l 0,-2.00235 c 0,-3.67825 0.282942,-8.03119 -1.871765,-11.20882 -1.893542,-2.85119 -5.506468,-4.02648 -8.684123,-4.02648 -5.89822,0 -11.165288,3.02529 -12.449402,9.29352 -0.261183,1.39295 -1.284122,2.76413 -2.677056,2.82942 l -15.017639,-1.6106 c -1.262354,-0.28292 -2.655297,-1.30588 -2.307061,-3.24292 3.460588,-18.19528 19.892928,-23.68 34.605874,-23.68 7.53057,0 17.36821,2.00235 23.309974,7.7047 7.530595,7.03 6.812348,16.41058 6.812348,26.61823 l 0,24.11528 c 0,7.24766 3.003541,10.42529 5.832952,14.34295 1.001172,1.39292 1.21882,3.06881 -0.04353,4.11351 -3.155879,2.63354 -8.771166,7.5306 -11.861768,10.27295 l -0.04352,-0.0436" /></g></g></g></svg>