<?xml version="1.0" encoding="UTF-8" standalone="no"?><svg xmlns:dc="http://purl.org/dc/elements/1.1/" xmlns:cc="http://creativecommons.org/ns#" xmlns:rdf="http://www.w3.org/1999/02/22-rdf-syntax-ns#" xmlns:svg="http://www.w3.org/2000/svg" xmlns="http://www.w3.org/2000/svg" xmlns:sodipodi="http://sodipodi.sourceforge.net/DTD/sodipodi-0.dtd" xmlns:inkscape="http://www.inkscape.org/namespaces/inkscape" version="1.1" id="Layer_1" width="500" height="155.899" viewBox="0 0 500 155.899" overflow="visible" enable-background="new 0 0 300 124.667" xml:space="preserve" inkscape:version="0.91 r13725" sodipodi:docname="bed-bath-and-beyond.svg" style="overflow:visible"><metadata id="metadata11"><rdf:RDF><cc:Work rdf:about=""><dc:format>image/svg+xml</dc:format><dc:type rdf:resource="http://purl.org/dc/dcmitype/StillImage" /><dc:title></dc:title></cc:Work></rdf:RDF></metadata><defs id="defs9" /><sodipodi:namedview pagecolor="#ffffff" bordercolor="#666666" borderopacity="1" objecttolerance="10" gridtolerance="10" guidetolerance="10" inkscape:pageopacity="0" inkscape:pageshadow="2" inkscape:window-width="1920" inkscape:window-height="1017" id="namedview7" showgrid="false" inkscape:zoom="1.33" inkscape:cx="80.153598" inkscape:cy="62.3335" inkscape:window-x="-8" inkscape:window-y="-8" inkscape:window-maximized="1" inkscape:current-layer="Layer_1" /><path id="Bed_Bath__x26__Beyond" d="m 0.151107,96.847278 27.108196,0 c 12.34782,0 24.994419,2.69588 24.994419,16.098012 0,5.09985 -2.804059,10.12243 -8.384704,11.72966 l 0,0.48079 c 6.932019,2.21337 11.348455,6.85132 11.348455,13.78334 0,11.96146 -12.201864,16.04821 -23.390628,16.04821 l -31.675738,0 0,-58.140012 m 23.692841,22.363792 c 3.417072,0 7.229081,-0.30221 7.229081,-4.31856 0,-4.33573 -4.36664,-4.02665 -7.73048,-4.02665 l -1.600358,0 0,8.34521 2.101757,0 z m -2.101757,21.89673 2.604874,0 c 3.81716,0 9.339423,-0.0807 9.339423,-4.86117 0,-4.85258 -5.918918,-4.76329 -9.691433,-4.76329 l -2.252864,0 0,9.62446 z m 37.189416,-44.260522 0,58.140012 47.686183,0 0,-15.87994 -22.137133,0 0,-5.71458 19.523673,0 0,-15.1244 -19.523673,0 0,-5.54459 21.385033,0 0,-15.876502 -46.934083,0 m 79.913113,0 -32.27673,0 27.34859,33.071762 0,25.06825 27.91696,0 0,-25.06825 26.84548,-33.071762 -32.06553,0 -5.62529,9.708602 c -1.00451,1.78581 -1.75146,3.63515 -2.56023,5.47419 l -0.85169,0 -8.73156,-15.182792 m 130.55789,29.223692 c 0,18.67198 -20.93686,29.82812 -46.63701,29.82812 -25.74824,0 -46.62672,-11.15786 -46.62672,-29.82812 0,-18.28734 21.02959,-30.161241 46.62672,-30.161241 25.60228,0 46.63701,11.872181 46.63701,30.161241 m -62.39332,0.30221 c 0,6.63839 6.47355,11.17846 15.75459,11.17846 9.29134,0 15.76489,-4.54178 15.76489,-11.17846 0,-6.15759 -6.02538,-11.32098 -15.76489,-11.32098 -9.73951,0 -15.75459,5.16339 -15.75459,11.32098 z m 161.78031,-29.525902 48.38848,0 c 43.9171,0 77.54349,8.552982 77.54349,29.915692 0,17.26222 -27.40698,28.22432 -65.75201,28.22432 l -60.17996,0 0,-58.140012 m 47.53507,40.704362 2.95517,0 c 15.76489,0 27.90837,-3.23505 27.90837,-10.86766 0,-8.15804 -10.58777,-11.63178 -27.90837,-11.63178 l -2.95517,0 0,22.49944 z m 68.11134,-40.072462 c 0,-4.304823 3.40677,-7.752803 7.77513,-7.752803 4.36664,0 7.78886,3.44798 7.78886,7.752803 0,4.309982 -3.42222,7.735632 -7.78886,7.735632 -4.36836,0 -7.77513,-3.42565 -7.77513,-7.735632 m 14.36029,0 c 0,-3.648883 -3.01355,-6.545666 -6.58516,-6.545666 -3.5596,0 -6.57143,2.896783 -6.57143,6.545666 0,3.657472 3.01183,6.549102 6.57143,6.549102 3.57161,0 6.58516,-2.89335 6.58516,-6.549102 z m -2.91911,4.181192 -1.39945,0 -2.55851,-3.892715 -1.40804,0 0,3.892715 -1.20371,0 0,-8.460258 3.70899,0 c 1.50763,0 3.01355,0.400089 3.01355,2.239126 0,1.648437 -1.15563,2.283772 -2.66154,2.328417 l 2.50871,3.892715 z m -3.95968,-5.101569 c 1.05259,0 2.9088,0.214641 2.9088,-1.14532 0,-0.875732 -1.15562,-1.035424 -2.05539,-1.035424 l -2.26145,0 0,2.182461 1.40804,0 z m -187.27957,0.327971 -31.47655,0 0,58.136578 31.32545,0 0,-29.58256 27.75727,29.58428 31.27221,0 0,-58.138298 -31.27221,0 0,30.116598 -27.60617,-30.116598 M 0,3.2658786 l 9.442451,0 c 14.458162,0 28.157357,3.796555 28.157357,21.1411984 0,5.609835 -3.061628,12.141765 -8.281677,14.612703 l 0,0.20262 c 9.087007,1.6347 15.414599,10.508783 15.414599,19.489328 0,15.428336 -13.156584,21.54644 -26.761337,21.54644 L 0,80.258168 0,3.2658786 m 9.643354,34.1174844 2.407404,0 c 9.129935,0 16.56507,-1.856208 16.56507,-12.876693 0,-10.814431 -7.376753,-12.650034 -16.319522,-12.650034 l -2.652952,0 0,25.526727 z m 0,34.2995 7.321806,0 c 8.886103,0 18.168861,-2.646084 18.168861,-13.587581 0,-10.812714 -11.037656,-13.056992 -19.568315,-13.056992 l -5.922352,0 0,26.644573 z m 40.704363,-68.4169844 0,76.9905724 41.358587,0 0,-8.772774 -31.770181,0 0,-29.100056 30.872126,0 0,-8.79853 -30.872126,0 0,-21.54644 31.768463,0 0,-8.7727724 -41.356869,0 m 50.347713,0 15.90742,0 c 23.5984,0 43.22338,12.4680174 43.22338,38.0994894 0,26.237615 -19.23005,38.891083 -43.51701,38.891083 l -15.61379,0 0,-76.9905724 m 9.58841,68.2177984 3.36384,0 c 19.6267,0 36.59529,-7.371602 36.59529,-29.713069 0,-22.466816 -16.96859,-29.731957 -36.59529,-29.731957 l -3.36384,0 0,59.445026 z m 76.53897,-68.2177984 9.38922,0 c 14.51139,0 28.21059,3.796555 28.21059,21.1411984 0,5.609835 -3.06163,12.141765 -8.27824,14.612703 l 0,0.20262 c 9.08185,1.6347 15.40944,10.508783 15.40944,19.489328 0,15.428336 -13.15658,21.54644 -26.7579,21.54644 l -17.97311,0 0,-76.9922894 m 9.59871,34.1174844 2.45205,0 c 9.087,0 16.5685,-1.856208 16.5685,-12.876693 0,-10.814431 -7.38018,-12.650034 -16.36932,-12.650034 l -2.65295,0 0,25.526727 z m 0,34.2995 7.3716,0 c 8.8861,0 18.17745,-2.646084 18.17745,-13.587581 0,-10.812714 -11.04624,-13.056992 -19.63013,-13.056992 l -5.91892,0 0,26.644573 z m 53.69954,-10.726857 -8.77964,19.298728 -10.29071,0 L 267.78852,-8.6362402e-5 304.53492,80.254734 l -10.28556,0 -8.78479,-19.298728 -35.34351,0 m 17.66746,-39.916204 -13.6992,31.134845 27.40526,0 -13.70606,-31.134845 z m 53.71156,59.216649 0,-68.2178 18.27532,0 0,-8.7727724 -46.1339,0 0,8.7727724 18.27532,0 0,68.2178 9.58326,0 m 69.71856,-45.951886 -36.63994,0 0,-31.0386864 -9.5884,0 0,76.9905724 9.5884,0 0,-36.95417 36.63994,0 0,36.95417 9.58841,0 0,-76.9905724 -9.58841,0 0,31.0386864 m 81.31772,35.54613 c -5.81761,6.83586 -13.95333,12.042172 -23.03862,12.042172 -12.89901,0 -23.58466,-9.38922 -23.58466,-22.672871 0,-9.796178 6.1181,-15.100366 13.45021,-20.407988 l 4.81138,-3.468585 c -4.36664,-4.613905 -8.47743,-10.326768 -8.47743,-16.853547 0,-10.6341324 7.6824,-16.8569804 17.76877,-16.8569804 9.38922,0 17.76534,5.920635 17.76534,16.0396304 0,8.671464 -7.52271,14.487354 -14.00141,19.181964 l 16.0671,19.400037 8.97883,-10.402321 6.12669,6.324158 -9.38922,11.046242 13.75758,17.035562 -11.84986,0 -8.3847,-10.407473 M 448.9019,42.895323 c -5.32479,3.672923 -14.00999,8.880952 -14.00999,16.219929 0,7.371602 6.92171,14.209179 14.30362,14.209179 7.12949,0 12.85265,-5.412366 17.66574,-10.232326 L 449.79824,42.28231 448.9019,42.895323 Z M 453.06077,29.4039 c 3.86524,-3.05991 9.18832,-6.222848 9.18832,-11.832684 0,-5.407215 -3.86524,-8.3881376 -8.97883,-8.3881376 -4.57613,0 -8.59248,3.2882876 -8.59248,8.1855176 0,3.875543 2.35933,6.732833 4.61906,9.590123 l 2.56023,3.264248 1.2037,-0.819067 z" inkscape:connector-curvature="0" style="clip-rule:evenodd;fill:#384a9c;fill-rule:evenodd" /></svg>